PageBot-Bold.ufo
<glyph name="numbersign" format="2">
  <advance width="621"/>
  <unicode hex="0023"/>
  <outline>
    <contour>
      <point x="50" y="51" type="line"/>
      <point x="116" y="51" type="line"/>
      <point x="102" y="-52" type="line"/>
      <point x="227" y="-52" type="line"/>
      <point x="241" y="51" type="line"/>
      <point x="326" y="51" type="line"/>
      <point x="312" y="-52" type="line"/>
      <point x="437" y="-52" type="line"/>
      <point x="451" y="51" type="line"/>
      <point x="556" y="51" type="line"/>
      <point x="556" y="192" type="line"/>
      <point x="470" y="192" type="line"/>
      <point x="484" y="289" type="line"/>
      <point x="571" y="289" type="line"/>
      <point x="571" y="430" type="line"/>
      <point x="503" y="430" type="line"/>
      <point x="517" y="531" type="line"/>
      <point x="392" y="531" type="line"/>
      <point x="378" y="430" type="line"/>
      <point x="293" y="430" type="line"/>
      <point x="307" y="531" type="line"/>
      <point x="182" y="531" type="line"/>
      <point x="168" y="430" type="line"/>
      <point x="66" y="430" type="line"/>
      <point x="66" y="289" type="line"/>
      <point x="149" y="289" type="line"/>
      <point x="135" y="192" type="line"/>
      <point x="50" y="192" type="line"/>
    </contour>
    <contour>
      <point x="260" y="192" type="line"/>
      <point x="274" y="289" type="line"/>
      <point x="359" y="289" type="line"/>
      <point x="345" y="192" type="line"/>
    </contour>
  </outline>
</glyph>
<glyph name="dollar" format="2">
  <advance width="558"/>
  <unicode hex="0024"/>
  <outline>
    <contour>
      <point x="212" y="-102" type="line"/>
      <point x="352" y="-102" type="line"/>
      <point x="352" y="-2" type="line"/>
      <point x="451" y="25"/>
      <point x="509" y="98"/>
      <point x="509" y="207" type="curve" smooth="yes"/>
      <point x="509" y="303"/>
      <point x="453" y="375"/>
      <point x="335" y="407" type="curve" smooth="yes"/>
      <point x="308" y="414" type="line" smooth="yes"/>
      <point x="261" y="428"/>
      <point x="238" y="447"/>
      <point x="238" y="474" type="curve" smooth="yes"/>
      <point x="238" y="505"/>
      <point x="263" y="519"/>
      <point x="306" y="519" type="curve" smooth="yes"/>
      <point x="364" y="519"/>
      <point x="425" y="503"/>
      <point x="480" y="473" type="curve"/>
      <point x="480" y="635" type="line"/>
      <point x="439" y="652"/>
      <point x="395" y="662"/>
      <point x="352" y="667" type="curve"/>
      <point x="352" y="762" type="line"/>
      <point x="212" y="762" type="line"/>
      <point x="212" y="662" type="line"/>
      <point x="111" y="638"/>
      <point x="51" y="565"/>
      <point x="51" y="464" type="curve" smooth="yes"/>
      <point x="51" y="365"/>
      <point x="107" y="294"/>
      <point x="221" y="263" type="curve" smooth="yes"/>
      <point x="248" y="256" type="line" smooth="yes"/>
      <point x="299" y="241"/>
      <point x="323" y="220"/>
      <point x="323" y="191" type="curve" smooth="yes"/>
      <point x="323" y="159"/>
      <point x="296" y="141"/>
      <point x="252" y="141" type="curve" smooth="yes"/>
      <point x="187" y="141"/>
      <point x="120" y="158"/>
      <point x="60" y="192" type="curve"/>
      <point x="60" y="29" type="line"/>
      <point x="110" y="8"/>
      <point x="161" y="-5"/>
      <point x="212" y="-10" type="curve"/>
    </contour>
  </outline>
</glyph>
<glyph name="percent" format="2">
  <advance width="903"/>
  <unicode hex="0025"/>
  <outline>
    <contour>
      <point x="212" y="351" type="curve" smooth="yes"/>
      <point x="318" y="351"/>
      <point x="389" y="427"/>
      <point x="389" y="540" type="curve" smooth="yes"/>
      <point x="389" y="654"/>
      <point x="318" y="729"/>
      <point x="212" y="729" type="curve" smooth="yes"/>
      <point x="106" y="729"/>
      <point x="35" y="654"/>
      <point x="35" y="540" type="curve" smooth="yes"/>
      <point x="35" y="427"/>
      <point x="106" y="351"/>
    </contour>
    <contour>
      <point x="226" y="0" type="line"/>
      <point x="354" y="0" type="line"/>
      <point x="674" y="716" type="line"/>
      <point x="546" y="716" type="line"/>
    </contour>
    <contour>
      <point x="212" y="467" type="curve" smooth="yes"/>
      <point x="183" y="467"/>
      <point x="161" y="495"/>
      <point x="161" y="540" type="curve" smooth="yes"/>
      <point x="161" y="586"/>
      <point x="183" y="614"/>
      <point x="212" y="614" type="curve" smooth="yes"/>
      <point x="241" y="614"/>
      <point x="263" y="585"/>
      <point x="263" y="540" type="curve" smooth="yes"/>
      <point x="263" y="495"/>
      <point x="241" y="467"/>
    </contour>
    <contour>
      <point x="693" y="-9" type="curve" smooth="yes"/>
      <point x="799" y="-9"/>
      <point x="870" y="67"/>
      <point x="870" y="180" type="curve" smooth="yes"/>
      <point x="870" y="294"/>
      <point x="799" y="369"/>
      <point x="693" y="369" type="curve" smooth="yes"/>
      <point x="587" y="369"/>
      <point x="516" y="294"/>
      <point x="516" y="180" type="curve" smooth="yes"/>
      <point x="516" y="67"/>
      <point x="587" y="-9"/>
    </contour>
    <contour>
      <point x="693" y="107" type="curve" smooth="yes"/>
      <point x="664" y="107"/>
      <point x="642" y="135"/>
      <point x="642" y="180" type="curve" smooth="yes"/>
      <point x="642" y="226"/>
      <point x="664" y="254"/>
      <point x="693" y="254" type="curve" smooth="yes"/>
      <point x="722" y="254"/>
      <point x="744" y="225"/>
      <point x="744" y="180" type="curve" smooth="yes"/>
      <point x="744" y="135"/>
      <point x="722" y="107"/>
    </contour>
  </outline>
</glyph>
<glyph name="ampersand" format="2">
  <advance width="678"/>
  <unicode hex="0026"/>
  <outline>
    <contour>
      <point x="257" y="-14" type="curve" smooth="yes"/>
      <point x="334" y="-14"/>
      <point x="387" y="9"/>
      <point x="425" y="45" type="curve"/>
      <point x="464" y="0" type="line"/>
      <point x="673" y="0" type="line"/>
      <point x="534" y="159" type="line"/>
      <point x="569" y="219"/>
      <point x="585" y="300"/>
      <point x="585" y="395" type="curve"/>
      <point x="440" y="395" type="line"/>
      <point x="440" y="349"/>
      <point x="436" y="311"/>
      <point x="428" y="280" type="curve"/>
      <point x="359" y="359" type="line" smooth="yes"/>
      <point x="324" y="399"/>
      <point x="307" y="428"/>
      <point x="307" y="462" type="curve" smooth="yes"/>
      <point x="307" y="502"/>
      <point x="336" y="529"/>
      <point x="383" y="529" type="curve" smooth="yes"/>
      <point x="425" y="529"/>
      <point x="463" y="519"/>
      <point x="502" y="498" type="curve"/>
      <point x="502" y="646" type="line"/>
      <point x="457" y="665"/>
      <point x="404" y="674"/>
      <point x="351" y="674" type="curve" smooth="yes"/>
      <point x="218" y="674"/>
      <point x="136" y="595"/>
      <point x="136" y="488" type="curve" smooth="yes"/>
      <point x="136" y="448"/>
      <point x="142" y="413"/>
      <point x="156" y="379" type="curve"/>
      <point x="73" y="332"/>
      <point x="36" y="260"/>
      <point x="36" y="184" type="curve" smooth="yes"/>
      <point x="36" y="70"/>
      <point x="117" y="-14"/>
    </contour>
    <contour>
      <point x="196" y="204" type="curve" smooth="yes"/>
      <point x="196" y="234"/>
      <point x="207" y="255"/>
      <point x="230" y="273" type="curve"/>
      <point x="334" y="152" type="line"/>
      <point x="318" y="137"/>
      <point x="298" y="129"/>
      <point x="275" y="129" type="curve" smooth="yes"/>
      <point x="226" y="129"/>
      <point x="196" y="159"/>
    </contour>
  </outline>
</glyph>
<glyph name="parenright" format="2">
  <advance width="417"/>
  <unicode hex="0029"/>
  <outline>
    <contour>
      <point x="12" y="-215" type="curve"/>
      <point x="206" y="-215" type="line"/>
      <point x="305" y="-91"/>
      <point x="363" y="83"/>
      <point x="363" y="251" type="curve" smooth="yes"/>
      <point x="363" y="419"/>
      <point x="305" y="592"/>
      <point x="206" y="716" type="curve"/>
      <point x="12" y="716" type="line"/>
      <point x="125" y="581"/>
      <point x="191" y="408"/>
      <point x="191" y="251" type="curve" smooth="yes"/>
      <point x="191" y="93"/>
      <point x="125" y="-80"/>
    </contour>
  </outline>
</glyph>
<glyph name="asterisk" format="2">
  <advance width="593"/>
  <unicode hex="002A"/>
  <outline>
    <contour>
      <point x="227" y="-18" type="line"/>
      <point x="296" y="135" type="line"/>
      <point x="367" y="-19" type="line"/>
      <point x="511" y="87" type="line"/>
      <point x="387" y="201" type="line"/>
      <point x="554" y="219" type="line"/>
      <point x="498" y="390" type="line"/>
      <point x="353" y="308" type="line"/>
      <point x="386" y="474" type="line"/>
      <point x="207" y="474" type="line"/>
      <point x="240" y="308" type="line"/>
      <point x="95" y="390" type="line"/>
      <point x="39" y="220" type="line"/>
      <point x="206" y="201" type="line"/>
      <point x="83" y="88" type="line"/>
    </contour>
  </outline>
</glyph>
<glyph name="plus" format="2">
  <advance width="534"/>
  <unicode hex="002B"/>
  <outline>
    <contour>
      <point x="199" y="77" type="line"/>
      <point x="335" y="77" type="line"/>
      <point x="335" y="224" type="line"/>
      <point x="476" y="224" type="line"/>
      <point x="476" y="357" type="line"/>
      <point x="335" y="357" type="line"/>
      <point x="335" y="505" type="line"/>
      <point x="199" y="505" type="line"/>
      <point x="199" y="357" type="line"/>
      <point x="58" y="357" type="line"/>
      <point x="58" y="224" type="line"/>
      <point x="199" y="224" type="line"/>
    </contour>
  </outline>
</glyph>
<glyph name="comma" format="2">
  <advance width="272"/>
  <unicode hex="002C"/>
  <outline>
    <contour>
      <point x="221" y="160" type="line"/>
      <point x="61" y="160" type="line"/>
      <point x="61" y="56" type="line" smooth="yes"/>
      <point x="61" y="-36"/>
      <point x="43" y="-88"/>
      <point x="11" y="-152" type="curve"/>
      <point x="131" y="-185" type="line"/>
      <point x="175" y="-143"/>
      <point x="221" y="-63"/>
      <point x="221" y="61" type="curve" smooth="yes"/>
    </contour>
  </outline>
</glyph>
<glyph name="slash" format="2">
  <advance width="511"/>
  <unicode hex="002F"/>
  <outline>
    <contour>
      <point x="26" y="0" type="line"/>
      <point x="174" y="0" type="line"/>
      <point x="485" y="716" type="line"/>
      <point x="337" y="716" type="line"/>
    </contour>
  </outline>
</glyph>
<glyph name="zero" format="2">
  <advance width="640"/>
  <unicode hex="0030"/>
  <outline>
    <contour>
      <point x="320" y="-16" type="curve" smooth="yes"/>
      <point x="505" y="-16"/>
      <point x="596" y="116"/>
      <point x="596" y="331" type="curve" smooth="yes"/>
      <point x="596" y="545"/>
      <point x="505" y="676"/>
      <point x="320" y="676" type="curve" smooth="yes"/>
      <point x="136" y="676"/>
      <point x="45" y="543"/>
      <point x="45" y="329" type="curve" smooth="yes"/>
      <point x="45" y="116"/>
      <point x="136" y="-16"/>
    </contour>
    <contour>
      <point x="320" y="144" type="curve" smooth="yes"/>
      <point x="254" y="144"/>
      <point x="224" y="206"/>
      <point x="224" y="331" type="curve" smooth="yes"/>
      <point x="224" y="454"/>
      <point x="254" y="516"/>
      <point x="320" y="516" type="curve" smooth="yes"/>
      <point x="386" y="516"/>
      <point x="417" y="454"/>
      <point x="417" y="329" type="curve" smooth="yes"/>
      <point x="417" y="205"/>
      <point x="386" y="144"/>
    </contour>
  </outline>
</glyph>
<glyph name="two" format="2">
  <advance width="537"/>
  <unicode hex="0032"/>
  <outline>
    <contour>
      <point x="48" y="0" type="line"/>
      <point x="490" y="0" type="line"/>
      <point x="490" y="164" type="line"/>
      <point x="227" y="164" type="line"/>
      <point x="265" y="179" type="line" smooth="yes"/>
      <point x="390" y="225"/>
      <point x="490" y="326"/>
      <point x="490" y="460" type="curve" smooth="yes"/>
      <point x="490" y="596"/>
      <point x="396" y="676"/>
      <point x="240" y="676" type="curve" smooth="yes"/>
      <point x="175" y="676"/>
      <point x="103" y="659"/>
      <point x="55" y="631" type="curve"/>
      <point x="55" y="459" type="line"/>
      <point x="104" y="494"/>
      <point x="162" y="513"/>
      <point x="220" y="513" type="curve" smooth="yes"/>
      <point x="275" y="513"/>
      <point x="317" y="483"/>
      <point x="317" y="424" type="curve" smooth="yes"/>
      <point x="317" y="345"/>
      <point x="222" y="268"/>
      <point x="102" y="226" type="curve" smooth="yes"/>
      <point x="48" y="208" type="line"/>
    </contour>
  </outline>
</glyph>
<glyph name="three" format="2">
  <advance width="533"/>
  <unicode hex="0033"/>
  <outline>
    <contour>
      <point x="259" y="-13" type="curve" smooth="yes"/>
      <point x="400" y="-13"/>
      <point x="486" y="59"/>
      <point x="486" y="172" type="curve" smooth="yes"/>
      <point x="486" y="248"/>
      <point x="443" y="311"/>
      <point x="359" y="334" type="curve"/>
      <point x="441" y="359"/>
      <point x="476" y="424"/>
      <point x="476" y="501" type="curve" smooth="yes"/>
      <point x="476" y="604"/>
      <point x="391" y="675"/>
      <point x="247" y="675" type="curve" smooth="yes"/>
      <point x="184" y="675"/>
      <point x="119" y="662"/>
      <point x="62" y="638" type="curve"/>
      <point x="62" y="473" type="line"/>
      <point x="108" y="500"/>
      <point x="168" y="515"/>
      <point x="222" y="515" type="curve" smooth="yes"/>
      <point x="269" y="515"/>
      <point x="299" y="498"/>
      <point x="299" y="463" type="curve" smooth="yes"/>
      <point x="299" y="421"/>
      <point x="260" y="400"/>
      <point x="197" y="400" type="curve" smooth="yes"/>
      <point x="161" y="400" type="line"/>
      <point x="161" y="262" type="line"/>
      <point x="204" y="262" type="line" smooth="yes"/>
      <point x="268" y="262"/>
      <point x="309" y="242"/>
      <point x="309" y="203" type="curve" smooth="yes"/>
      <point x="309" y="165"/>
      <point x="276" y="147"/>
      <point x="225" y="147" type="curve" smooth="yes"/>
      <point x="164" y="147"/>
      <point x="98" y="165"/>
      <point x="47" y="197" type="curve"/>
      <point x="47" y="30" type="line"/>
      <point x="116" y="3"/>
      <point x="191" y="-13"/>
    </contour>
  </outline>
</glyph>
<glyph name="four" format="2">
  <advance width="613"/>
  <unicode hex="0034"/>
  <outline>
    <contour>
      <point x="321" y="0" type="line"/>
      <point x="491" y="0" type="line"/>
      <point x="491" y="135" type="line"/>
      <point x="570" y="135" type="line"/>
      <point x="570" y="284" type="line"/>
      <point x="491" y="284" type="line"/>
      <point x="491" y="662" type="line"/>
      <point x="250" y="662" type="line"/>
      <point x="40" y="258" type="line"/>
      <point x="40" y="136" type="line"/>
      <point x="321" y="136" type="line"/>
    </contour>
    <contour>
      <point x="321" y="284" type="line"/>
      <point x="208" y="284" type="line"/>
      <point x="321" y="499" type="line"/>
    </contour>
  </outline>
</glyph>
<glyph name="five" format="2">
  <advance width="548"/>
  <unicode hex="0035"/>
  <outline>
    <contour>
      <point x="249" y="-12" type="curve" smooth="yes"/>
      <point x="410" y="-12"/>
      <point x="501" y="77"/>
      <point x="501" y="207" type="curve" smooth="yes"/>
      <point x="501" y="340"/>
      <point x="412" y="414"/>
      <point x="263" y="413" type="curve" smooth="yes"/>
      <point x="247" y="413"/>
      <point x="224" y="411"/>
      <point x="204" y="408" type="curve"/>
      <point x="210" y="496" type="line"/>
      <point x="480" y="496" type="line"/>
      <point x="480" y="662" type="line"/>
      <point x="73" y="662" type="line"/>
      <point x="48" y="246" type="line"/>
      <point x="107" y="259"/>
      <point x="170" y="266"/>
      <point x="230" y="266" type="curve" smooth="yes"/>
      <point x="288" y="266"/>
      <point x="322" y="243"/>
      <point x="322" y="203" type="curve" smooth="yes"/>
      <point x="322" y="163"/>
      <point x="290" y="141"/>
      <point x="237" y="141" type="curve" smooth="yes"/>
      <point x="174" y="141"/>
      <point x="104" y="153"/>
      <point x="47" y="183" type="curve"/>
      <point x="47" y="28" type="line"/>
      <point x="103" y="2"/>
      <point x="170" y="-12"/>
    </contour>
  </outline>
</glyph>
<glyph name="six" format="2">
  <advance width="597"/>
  <unicode hex="0036"/>
  <outline>
    <contour>
      <point x="304" y="-12" type="curve" smooth="yes"/>
      <point x="447" y="-12"/>
      <point x="552" y="72"/>
      <point x="552" y="234" type="curve" smooth="yes"/>
      <point x="552" y="370"/>
      <point x="467" y="446"/>
      <point x="345" y="446" type="curve" smooth="yes"/>
      <point x="293" y="446"/>
      <point x="253" y="432"/>
      <point x="226" y="401" type="curve"/>
      <point x="246" y="485"/>
      <point x="293" y="528"/>
      <point x="362" y="528" type="curve" smooth="yes"/>
      <point x="413" y="528"/>
      <point x="469" y="515"/>
      <point x="517" y="493" type="curve"/>
      <point x="517" y="647" type="line"/>
      <point x="462" y="667"/>
      <point x="400" y="677"/>
      <point x="345" y="677" type="curve" smooth="yes"/>
      <point x="166" y="677"/>
      <point x="45" y="530"/>
      <point x="45" y="314" type="curve" smooth="yes"/>
      <point x="45" y="102"/>
      <point x="145" y="-12"/>
    </contour>
    <contour>
      <point x="301" y="140" type="curve" smooth="yes"/>
      <point x="254" y="140"/>
      <point x="224" y="176"/>
      <point x="223" y="241" type="curve" smooth="yes"/>
      <point x="235" y="282"/>
      <point x="260" y="309"/>
      <point x="305" y="309" type="curve" smooth="yes"/>
      <point x="350" y="309"/>
      <point x="379" y="275"/>
      <point x="379" y="225" type="curve" smooth="yes"/>
      <point x="379" y="174"/>
      <point x="348" y="140"/>
    </contour>
  </outline>
</glyph>
<glyph name="eight" format="2">
  <advance width="596"/>
  <unicode hex="0038"/>
  <outline>
    <contour>
      <point x="298" y="-16" type="curve" smooth="yes"/>
      <point x="458" y="-16"/>
      <point x="549" y="68"/>
      <point x="549" y="188" type="curve" smooth="yes"/>
      <point x="549" y="262"/>
      <point x="512" y="317"/>
      <point x="446" y="357" type="curve"/>
      <point x="508" y="391"/>
      <point x="537" y="439"/>
      <point x="537" y="500" type="curve" smooth="yes"/>
      <point x="537" y="603"/>
      <point x="451" y="679"/>
      <point x="298" y="679" type="curve" smooth="yes"/>
      <point x="143" y="679"/>
      <point x="58" y="597"/>
      <point x="58" y="488" type="curve" smooth="yes"/>
      <point x="58" y="421"/>
      <point x="88" y="368"/>
      <point x="144" y="329" type="curve"/>
      <point x="81" y="293"/>
      <point x="47" y="241"/>
      <point x="47" y="176" type="curve" smooth="yes"/>
      <point x="47" y="65"/>
      <point x="133" y="-16"/>
    </contour>
    <contour>
      <point x="300" y="412" type="line" smooth="yes"/>
      <point x="257" y="424"/>
      <point x="228" y="452"/>
      <point x="228" y="484" type="curve" smooth="yes"/>
      <point x="228" y="522"/>
      <point x="256" y="546"/>
      <point x="298" y="546" type="curve" smooth="yes"/>
      <point x="341" y="546"/>
      <point x="367" y="520"/>
      <point x="367" y="480" type="curve" smooth="yes"/>
      <point x="367" y="450"/>
      <point x="345" y="424"/>
      <point x="311" y="409" type="curve"/>
    </contour>
    <contour>
      <point x="218" y="196" type="curve" smooth="yes"/>
      <point x="218" y="226"/>
      <point x="239" y="255"/>
      <point x="270" y="273" type="curve"/>
      <point x="271" y="272"/>
      <point x="272" y="272"/>
      <point x="273" y="272" type="curve" smooth="yes"/>
      <point x="296" y="266" type="line" smooth="yes"/>
      <point x="345" y="253"/>
      <point x="376" y="229"/>
      <point x="376" y="192" type="curve" smooth="yes"/>
      <point x="376" y="149"/>
      <point x="349" y="122"/>
      <point x="297" y="122" type="curve" smooth="yes"/>
      <point x="248" y="122"/>
      <point x="218" y="154"/>
    </contour>
  </outline>
</glyph>
<glyph name="nine" format="2">
  <advance width="596"/>
  <unicode hex="0039"/>
  <outline>
    <contour>
      <point x="252" y="-12" type="curve" smooth="yes"/>
      <point x="431" y="-12"/>
      <point x="551" y="135"/>
      <point x="551" y="351" type="curve" smooth="yes"/>
      <point x="551" y="570"/>
      <point x="452" y="677"/>
      <point x="292" y="677" type="curve" smooth="yes"/>
      <point x="149" y="677"/>
      <point x="45" y="593"/>
      <point x="45" y="432" type="curve" smooth="yes"/>
      <point x="45" y="296"/>
      <point x="130" y="220"/>
      <point x="252" y="220" type="curve" smooth="yes"/>
      <point x="306" y="220"/>
      <point x="348" y="236"/>
      <point x="374" y="269" type="curve"/>
      <point x="356" y="180"/>
      <point x="307" y="138"/>
      <point x="235" y="138" type="curve" smooth="yes"/>
      <point x="185" y="138"/>
      <point x="129" y="152"/>
      <point x="71" y="181" type="curve"/>
      <point x="71" y="27" type="line"/>
      <point x="127" y="4"/>
      <point x="183" y="-12"/>
    </contour>
    <contour>
      <point x="294" y="358" type="curve" smooth="yes"/>
      <point x="249" y="358"/>
      <point x="219" y="392"/>
      <point x="219" y="442" type="curve" smooth="yes"/>
      <point x="219" y="495"/>
      <point x="249" y="527"/>
      <point x="296" y="527" type="curve" smooth="yes"/>
      <point x="345" y="527"/>
      <point x="374" y="489"/>
      <point x="375" y="427" type="curve" smooth="yes"/>
      <point x="362" y="381"/>
      <point x="339" y="358"/>
    </contour>
  </outline>
</glyph>
<glyph name="colon" format="2">
  <advance width="260"/>
  <unicode hex="003A"/>
  <outline>
    <contour>
      <point x="50" y="284" type="line"/>
      <point x="210" y="284" type="line"/>
      <point x="210" y="444" type="line"/>
      <point x="50" y="444" type="line"/>
    </contour>
    <contour>
      <point x="50" y="0" type="line"/>
      <point x="210" y="0" type="line"/>
      <point x="210" y="160" type="line"/>
      <point x="50" y="160" type="line"/>
    </contour>
  </outline>
</glyph>
<glyph name="semicolon" format="2">
  <advance width="275"/>
  <unicode hex="003B"/>
  <outline>
    <contour>
      <point x="67" y="285" type="line"/>
      <point x="227" y="285" type="line"/>
      <point x="227" y="445" type="line"/>
      <point x="67" y="445" type="line"/>
    </contour>
    <contour>
      <point x="227" y="160" type="line"/>
      <point x="67" y="160" type="line"/>
      <point x="67" y="56" type="line" smooth="yes"/>
      <point x="67" y="-36"/>
      <point x="49" y="-88"/>
      <point x="17" y="-152" type="curve"/>
      <point x="137" y="-185" type="line"/>
      <point x="181" y="-143"/>
      <point x="227" y="-63"/>
      <point x="227" y="61" type="curve" smooth="yes"/>
    </contour>
  </outline>
</glyph>
<glyph name="greater" format="2">
  <advance width="521"/>
  <unicode hex="003E"/>
  <outline>
    <contour>
      <point x="58" y="76" type="line"/>
      <point x="267" y="76" type="line"/>
      <point x="463" y="292" type="line"/>
      <point x="266" y="508" type="line"/>
      <point x="58" y="508" type="line"/>
      <point x="255" y="293" type="line"/>
    </contour>
  </outline>
</glyph>
<glyph name="question" format="2">
  <advance width="485"/>
  <unicode hex="003F"/>
  <outline>
    <contour>
      <point x="145" y="220" type="curve"/>
      <point x="299" y="220" type="line"/>
      <point x="299" y="272"/>
      <point x="326" y="317"/>
      <point x="370" y="358" type="curve" smooth="yes"/>
      <point x="423" y="406"/>
      <point x="451" y="457"/>
      <point x="451" y="531" type="curve" smooth="yes"/>
      <point x="451" y="640"/>
      <point x="359" y="708"/>
      <point x="229" y="708" type="curve" smooth="yes"/>
      <point x="156" y="708"/>
      <point x="99" y="698"/>
      <point x="34" y="676" type="curve"/>
      <point x="34" y="527" type="line"/>
      <point x="82" y="551"/>
      <point x="125" y="563"/>
      <point x="178" y="563" type="curve" smooth="yes"/>
      <point x="236" y="563"/>
      <point x="273" y="537"/>
      <point x="273" y="497" type="curve" smooth="yes"/>
      <point x="273" y="465"/>
      <point x="260" y="437"/>
      <point x="224" y="405" type="curve" smooth="yes"/>
      <point x="179" y="363"/>
      <point x="145" y="307"/>
    </contour>
    <contour>
      <point x="141" y="0" type="line"/>
      <point x="305" y="0" type="line"/>
      <point x="305" y="148" type="line"/>
      <point x="141" y="148" type="line"/>
    </contour>
  </outline>
</glyph>
<glyph name="at" format="2">
  <advance width="814"/>
  <unicode hex="0040"/>
  <outline>
    <contour>
      <point x="400" y="-79" type="curve" smooth="yes"/>
      <point x="460" y="-79"/>
      <point x="519" y="-67"/>
      <point x="577" y="-44" type="curve"/>
      <point x="577" y="62" type="line"/>
      <point x="522" y="33"/>
      <point x="463" y="18"/>
      <point x="400" y="18" type="curve" smooth="yes"/>
      <point x="246" y="18"/>
      <point x="143" y="132"/>
      <point x="143" y="276" type="curve" smooth="yes"/>
      <point x="143" y="416"/>
      <point x="249" y="537"/>
      <point x="409" y="537" type="curve" smooth="yes"/>
      <point x="567" y="537"/>
      <point x="671" y="435"/>
      <point x="671" y="313" type="curve" smooth="yes"/>
      <point x="671" y="235"/>
      <point x="644" y="195"/>
      <point x="597" y="195" type="curve" smooth="yes"/>
      <point x="557" y="195"/>
      <point x="536" y="230"/>
      <point x="542" y="278" type="curve" smooth="yes"/>
      <point x="560" y="422" type="line"/>
      <point x="522" y="438"/>
      <point x="467" y="449"/>
      <point x="426" y="449" type="curve" smooth="yes"/>
      <point x="321" y="449"/>
      <point x="230" y="371"/>
      <point x="230" y="247" type="curve" smooth="yes"/>
      <point x="230" y="165"/>
      <point x="281" y="105"/>
      <point x="353" y="105" type="curve" smooth="yes"/>
      <point x="406" y="105"/>
      <point x="446" y="128"/>
      <point x="471" y="176" type="curve"/>
      <point x="500" y="126"/>
      <point x="542" y="105"/>
      <point x="597" y="105" type="curve" smooth="yes"/>
      <point x="692" y="105"/>
      <point x="771" y="182"/>
      <point x="771" y="317" type="curve" smooth="yes"/>
      <point x="771" y="508"/>
      <point x="606" y="632"/>
      <point x="409" y="632" type="curve" smooth="yes"/>
      <point x="211" y="632"/>
      <point x="43" y="489"/>
      <point x="43" y="274" type="curve" smooth="yes"/>
      <point x="43" y="57"/>
      <point x="207" y="-79"/>
    </contour>
    <contour>
      <point x="383" y="208" type="curve" smooth="yes"/>
      <point x="356" y="208"/>
      <point x="338" y="228"/>
      <point x="338" y="262" type="curve" smooth="yes"/>
      <point x="338" y="311"/>
      <point x="373" y="351"/>
      <point x="410" y="351" type="curve" smooth="yes"/>
      <point x="424" y="351"/>
      <point x="437" y="349"/>
      <point x="451" y="345" type="curve"/>
      <point x="445" y="304" type="line" smooth="yes"/>
      <point x="434" y="224"/>
      <point x="408" y="208"/>
    </contour>
  </outline>
</glyph>
<glyph name="A" format="2">
  <advance width="722"/>
  <unicode hex="0041"/>
  <outline>
    <contour>
      <point x="14" y="0" type="line"/>
      <point x="185" y="0" type="line"/>
      <point x="230" y="118" type="line"/>
      <point x="473" y="118" type="line"/>
      <point x="517" y="0" type="line"/>
      <point x="708" y="0" type="line"/>
      <point x="446" y="658" type="line"/>
      <point x="277" y="658" type="line"/>
    </contour>
    <contour>
      <point x="278" y="248" type="line"/>
      <point x="309" y="332" type="line"/>
      <point x="351" y="456" type="line"/>
      <point x="393" y="332" type="line"/>
      <point x="424" y="248" type="line"/>
    </contour>
  </outline>
</glyph>
<glyph name="B" format="2">
  <advance width="587"/>
  <unicode hex="0042"/>
  <outline>
    <contour>
      <point x="62" y="0" type="line"/>
      <point x="320" y="0" type="line" smooth="yes"/>
      <point x="470" y="0"/>
      <point x="552" y="66"/>
      <point x="552" y="182" type="curve" smooth="yes"/>
      <point x="552" y="263"/>
      <point x="504" y="314"/>
      <point x="418" y="334" type="curve"/>
      <point x="490" y="359"/>
      <point x="531" y="413"/>
      <point x="531" y="492" type="curve" smooth="yes"/>
      <point x="531" y="599"/>
      <point x="451" y="658"/>
      <point x="305" y="658" type="curve" smooth="yes"/>
      <point x="62" y="658" type="line"/>
    </contour>
    <contour>
      <point x="237" y="392" type="line"/>
      <point x="237" y="527" type="line"/>
      <point x="283" y="527" type="line" smooth="yes"/>
      <point x="326" y="527"/>
      <point x="355" y="503"/>
      <point x="355" y="460" type="curve" smooth="yes"/>
      <point x="355" y="418"/>
      <point x="326" y="392"/>
      <point x="283" y="392" type="curve" smooth="yes"/>
    </contour>
    <contour>
      <point x="237" y="137" type="line"/>
      <point x="237" y="274" type="line"/>
      <point x="299" y="274" type="line" smooth="yes"/>
      <point x="344" y="274"/>
      <point x="375" y="249"/>
      <point x="375" y="206" type="curve" smooth="yes"/>
      <point x="375" y="163"/>
      <point x="344" y="137"/>
      <point x="299" y="137" type="curve" smooth="yes"/>
    </contour>
  </outline>
</glyph>
<glyph name="C" format="2">
  <advance width="647"/>
  <unicode hex="0043"/>
  <outline>
    <contour>
      <point x="405" y="-14" type="curve" smooth="yes"/>
      <point x="477" y="-14"/>
      <point x="541" y="1"/>
      <point x="604" y="35" type="curve"/>
      <point x="604" y="200" type="line"/>
      <point x="542" y="163"/>
      <point x="481" y="144"/>
      <point x="411" y="144" type="curve" smooth="yes"/>
      <point x="297" y="144"/>
      <point x="223" y="216"/>
      <point x="223" y="330" type="curve" smooth="yes"/>
      <point x="223" y="443"/>
      <point x="297" y="514"/>
      <point x="411" y="514" type="curve" smooth="yes"/>
      <point x="477" y="514"/>
      <point x="537" y="497"/>
      <point x="597" y="461" type="curve"/>
      <point x="597" y="628" type="line"/>
      <point x="536" y="657"/>
      <point x="474" y="672"/>
      <point x="405" y="672" type="curve" smooth="yes"/>
      <point x="182" y="672"/>
      <point x="40" y="540"/>
      <point x="40" y="330" type="curve" smooth="yes"/>
      <point x="40" y="120"/>
      <point x="182" y="-14"/>
    </contour>
  </outline>
</glyph>
<glyph name="D" format="2">
  <advance width="703"/>
  <unicode hex="0044"/>
  <outline>
    <contour>
      <point x="62" y="0" type="line"/>
      <point x="298" y="0" type="line" smooth="yes"/>
      <point x="524" y="0"/>
      <point x="663" y="131"/>
      <point x="663" y="337" type="curve" smooth="yes"/>
      <point x="663" y="534"/>
      <point x="523" y="658"/>
      <point x="302" y="658" type="curve" smooth="yes"/>
      <point x="62" y="658" type="line"/>
    </contour>
    <contour>
      <point x="238" y="159" type="line"/>
      <point x="238" y="499" type="line"/>
      <point x="303" y="499" type="line" smooth="yes"/>
      <point x="415" y="499"/>
      <point x="483" y="436"/>
      <point x="483" y="337" type="curve" smooth="yes"/>
      <point x="483" y="228"/>
      <point x="413" y="159"/>
      <point x="299" y="159" type="curve" smooth="yes"/>
    </contour>
  </outline>
</glyph>
<glyph name="F" format="2">
  <advance width="485"/>
  <unicode hex="0046"/>
  <outline>
    <contour>
      <point x="62" y="0" type="line"/>
      <point x="238" y="0" type="line"/>
      <point x="238" y="242" type="line"/>
      <point x="433" y="242" type="line"/>
      <point x="433" y="395" type="line"/>
      <point x="238" y="395" type="line"/>
      <point x="238" y="500" type="line"/>
      <point x="449" y="500" type="line"/>
      <point x="449" y="658" type="line"/>
      <point x="62" y="658" type="line"/>
    </contour>
  </outline>
</glyph>
<glyph name="G" format="2">
  <advance width="699"/>
  <unicode hex="0047"/>
  <outline>
    <contour>
      <point x="392" y="-14" type="curve" smooth="yes"/>
      <point x="489" y="-14"/>
      <point x="575" y="2"/>
      <point x="654" y="33" type="curve"/>
      <point x="654" y="385" type="line"/>
      <point x="371" y="385" type="line"/>
      <point x="371" y="244" type="line"/>
      <point x="483" y="244" type="line"/>
      <point x="483" y="155" type="line"/>
      <point x="454" y="145"/>
      <point x="425" y="142"/>
      <point x="390" y="142" type="curve" smooth="yes"/>
      <point x="290" y="142"/>
      <point x="221" y="216"/>
      <point x="221" y="332" type="curve" smooth="yes"/>
      <point x="221" y="443"/>
      <point x="297" y="513"/>
      <point x="406" y="513" type="curve" smooth="yes"/>
      <point x="482" y="513"/>
      <point x="550" y="499"/>
      <point x="615" y="471" type="curve"/>
      <point x="615" y="635" type="line"/>
      <point x="548" y="659"/>
      <point x="470" y="672"/>
      <point x="396" y="672" type="curve" smooth="yes"/>
      <point x="183" y="672"/>
      <point x="40" y="541"/>
      <point x="40" y="329" type="curve" smooth="yes"/>
      <point x="40" y="121"/>
      <point x="178" y="-14"/>
    </contour>
  </outline>
</glyph>
<glyph name="M" format="2">
  <advance width="882"/>
  <unicode hex="004D"/>
  <outline>
    <contour>
      <point x="62" y="0" type="line"/>
      <point x="222" y="0" type="line"/>
      <point x="222" y="341" type="line"/>
      <point x="216" y="484" type="line"/>
      <point x="268" y="342" type="line"/>
      <point x="372" y="88" type="line"/>
      <point x="496" y="88" type="line"/>
      <point x="599" y="341" type="line"/>
      <point x="651" y="484" type="line"/>
      <point x="645" y="341" type="line"/>
      <point x="645" y="0" type="line"/>
      <point x="820" y="0" type="line"/>
      <point x="820" y="658" type="line"/>
      <point x="566" y="658" type="line"/>
      <point x="483" y="444" type="line"/>
      <point x="442" y="319" type="line"/>
      <point x="402" y="443" type="line"/>
      <point x="319" y="658" type="line"/>
      <point x="62" y="658" type="line"/>
    </contour>
  </outline>
</glyph>
<glyph name="N" format="2">
  <advance width="746"/>
  <unicode hex="004E"/>
  <outline>
    <contour>
      <point x="62" y="0" type="line"/>
      <point x="223" y="0" type="line"/>
      <point x="223" y="328" type="line"/>
      <point x="220" y="413" type="line"/>
      <point x="272" y="327" type="line"/>
      <point x="490" y="0" type="line"/>
      <point x="684" y="0" type="line"/>
      <point x="684" y="658" type="line"/>
      <point x="523" y="658" type="line"/>
      <point x="523" y="333" type="line"/>
      <point x="526" y="248" type="line"/>
      <point x="474" y="334" type="line"/>
      <point x="260" y="658" type="line"/>
      <point x="62" y="658" type="line"/>
    </contour>
  </outline>
</glyph>
<glyph name="O" format="2">
  <advance width="786"/>
  <unicode hex="004F"/>
  <outline>
    <contour>
      <point x="393" y="-17" type="curve" smooth="yes"/>
      <point x="609" y="-17"/>
      <point x="746" y="117"/>
      <point x="746" y="329" type="curve" smooth="yes"/>
      <point x="746" y="542"/>
      <point x="605" y="675"/>
      <point x="393" y="675" type="curve" smooth="yes"/>
      <point x="181" y="675"/>
      <point x="40" y="538"/>
      <point x="40" y="329" type="curve" smooth="yes"/>
      <point x="40" y="121"/>
      <point x="177" y="-17"/>
    </contour>
    <contour>
      <point x="393" y="141" type="curve" smooth="yes"/>
      <point x="288" y="141"/>
      <point x="221" y="214"/>
      <point x="221" y="329" type="curve" smooth="yes"/>
      <point x="221" y="445"/>
      <point x="288" y="518"/>
      <point x="393" y="518" type="curve" smooth="yes"/>
      <point x="498" y="518"/>
      <point x="565" y="445"/>
      <point x="565" y="329" type="curve" smooth="yes"/>
      <point x="565" y="214"/>
      <point x="498" y="141"/>
    </contour>
  </outline>
</glyph>
<glyph name="P" format="2">
  <advance width="573"/>
  <unicode hex="0050"/>
  <outline>
    <contour>
      <point x="62" y="0" type="line"/>
      <point x="238" y="0" type="line"/>
      <point x="238" y="190" type="line"/>
      <point x="283" y="190" type="line" smooth="yes"/>
      <point x="442" y="190"/>
      <point x="543" y="287"/>
      <point x="543" y="425" type="curve" smooth="yes"/>
      <point x="543" y="561"/>
      <point x="443" y="658"/>
      <point x="284" y="658" type="curve" smooth="yes"/>
      <point x="62" y="658" type="line"/>
    </contour>
    <contour>
      <point x="238" y="338" type="line"/>
      <point x="238" y="507" type="line"/>
      <point x="274" y="507" type="line" smooth="yes"/>
      <point x="330" y="507"/>
      <point x="365" y="475"/>
      <point x="365" y="425" type="curve" smooth="yes"/>
      <point x="365" y="372"/>
      <point x="330" y="338"/>
      <point x="275" y="338" type="curve" smooth="yes"/>
    </contour>
  </outline>
</glyph>
<glyph name="Q" format="2">
  <advance width="786"/>
  <unicode hex="0051"/>
  <outline>
    <contour>
      <point x="393" y="-17" type="curve" smooth="yes"/>
      <point x="396" y="-17"/>
      <point x="399" y="-17"/>
      <point x="403" y="-17" type="curve"/>
      <point x="471" y="-83"/>
      <point x="548" y="-132"/>
      <point x="634" y="-162" type="curve"/>
      <point x="726" y="-20" type="line"/>
      <point x="681" y="-10"/>
      <point x="636" y="9"/>
      <point x="596" y="34" type="curve"/>
      <point x="691" y="91"/>
      <point x="746" y="195"/>
      <point x="746" y="329" type="curve" smooth="yes"/>
      <point x="746" y="542"/>
      <point x="605" y="675"/>
      <point x="393" y="675" type="curve" smooth="yes"/>
      <point x="181" y="675"/>
      <point x="40" y="538"/>
      <point x="40" y="329" type="curve" smooth="yes"/>
      <point x="40" y="121"/>
      <point x="177" y="-17"/>
    </contour>
    <contour>
      <point x="393" y="141" type="curve" smooth="yes"/>
      <point x="288" y="141"/>
      <point x="221" y="214"/>
      <point x="221" y="329" type="curve" smooth="yes"/>
      <point x="221" y="445"/>
      <point x="288" y="518"/>
      <point x="393" y="518" type="curve" smooth="yes"/>
      <point x="498" y="518"/>
      <point x="565" y="445"/>
      <point x="565" y="329" type="curve" smooth="yes"/>
      <point x="565" y="214"/>
      <point x="498" y="141"/>
    </contour>
  </outline>
</glyph>
<glyph name="R" format="2">
  <advance width="620"/>
  <unicode hex="0052"/>
  <outline>
    <contour>
      <point x="413" y="0" type="line"/>
      <point x="603" y="0" type="line"/>
      <point x="526" y="206" type="line" smooth="yes"/>
      <point x="503" y="265"/>
      <point x="465" y="300"/>
      <point x="404" y="314" type="curve"/>
      <point x="490" y="340"/>
      <point x="534" y="399"/>
      <point x="534" y="481" type="curve" smooth="yes"/>
      <point x="534" y="590"/>
      <point x="445" y="658"/>
      <point x="319" y="658" type="curve" smooth="yes"/>
      <point x="62" y="658" type="line"/>
      <point x="62" y="0" type="line"/>
      <point x="238" y="0" type="line"/>
      <point x="238" y="254" type="line"/>
      <point x="271" y="254" type="line" smooth="yes"/>
      <point x="307" y="254"/>
      <point x="330" y="233"/>
      <point x="347" y="186" type="curve" smooth="yes"/>
    </contour>
    <contour>
      <point x="238" y="379" type="line"/>
      <point x="238" y="521" type="line"/>
      <point x="286" y="521" type="line" smooth="yes"/>
      <point x="329" y="521"/>
      <point x="358" y="493"/>
      <point x="358" y="451" type="curve" smooth="yes"/>
      <point x="358" y="408"/>
      <point x="329" y="379"/>
      <point x="286" y="379" type="curve" smooth="yes"/>
    </contour>
  </outline>
</glyph>
<glyph name="S" format="2">
  <advance width="543"/>
  <unicode hex="0053"/>
  <outline>
    <contour>
      <point x="254" y="-13" type="curve" smooth="yes"/>
      <point x="406" y="-13"/>
      <point x="501" y="68"/>
      <point x="501" y="207" type="curve" smooth="yes"/>
      <point x="501" y="303"/>
      <point x="445" y="375"/>
      <point x="327" y="407" type="curve" smooth="yes"/>
      <point x="300" y="414" type="line" smooth="yes"/>
      <point x="253" y="428"/>
      <point x="230" y="447"/>
      <point x="230" y="474" type="curve" smooth="yes"/>
      <point x="230" y="505"/>
      <point x="255" y="519"/>
      <point x="298" y="519" type="curve" smooth="yes"/>
      <point x="356" y="519"/>
      <point x="417" y="503"/>
      <point x="472" y="473" type="curve"/>
      <point x="472" y="635" type="line"/>
      <point x="411" y="660"/>
      <point x="345" y="671"/>
      <point x="283" y="671" type="curve" smooth="yes"/>
      <point x="136" y="671"/>
      <point x="43" y="589"/>
      <point x="43" y="464" type="curve" smooth="yes"/>
      <point x="43" y="365"/>
      <point x="99" y="294"/>
      <point x="213" y="263" type="curve" smooth="yes"/>
      <point x="240" y="256" type="line" smooth="yes"/>
      <point x="291" y="241"/>
      <point x="315" y="220"/>
      <point x="315" y="191" type="curve" smooth="yes"/>
      <point x="315" y="159"/>
      <point x="288" y="141"/>
      <point x="244" y="141" type="curve" smooth="yes"/>
      <point x="179" y="141"/>
      <point x="112" y="158"/>
      <point x="52" y="192" type="curve"/>
      <point x="52" y="29" type="line"/>
      <point x="118" y="1"/>
      <point x="188" y="-13"/>
    </contour>
  </outline>
</glyph>
<glyph name="U" format="2">
  <advance width="692"/>
  <unicode hex="0055"/>
  <outline>
    <contour>
      <point x="349" y="-12" type="curve" smooth="yes"/>
      <point x="521" y="-12"/>
      <point x="636" y="96"/>
      <point x="636" y="264" type="curve" smooth="yes"/>
      <point x="636" y="658" type="line"/>
      <point x="466" y="658" type="line"/>
      <point x="466" y="272" type="line" smooth="yes"/>
      <point x="466" y="203"/>
      <point x="423" y="156"/>
      <point x="352" y="156" type="curve" smooth="yes"/>
      <point x="282" y="156"/>
      <point x="238" y="203"/>
      <point x="238" y="272" type="curve" smooth="yes"/>
      <point x="238" y="658" type="line"/>
      <point x="56" y="658" type="line"/>
      <point x="56" y="264" type="line" smooth="yes"/>
      <point x="56" y="96"/>
      <point x="172" y="-12"/>
    </contour>
  </outline>
</glyph>
<glyph name="V" format="2">
  <advance width="711"/>
  <unicode hex="0056"/>
  <outline>
    <contour>
      <point x="273" y="0" type="line"/>
      <point x="438" y="0" type="line"/>
      <point x="697" y="658" type="line"/>
      <point x="522" y="658" type="line"/>
      <point x="400" y="326" type="line"/>
      <point x="363" y="213" type="line"/>
      <point x="326" y="326" type="line"/>
      <point x="204" y="658" type="line"/>
      <point x="14" y="658" type="line"/>
    </contour>
  </outline>
</glyph>
<glyph name="W" format="2">
  <advance width="1041"/>
  <unicode hex="0057"/>
  <outline>
    <contour>
      <point x="211" y="0" type="line"/>
      <point x="404" y="0" type="line"/>
      <point x="489" y="304" type="line"/>
      <point x="519" y="430" type="line"/>
      <point x="547" y="304" type="line"/>
      <point x="633" y="0" type="line"/>
      <point x="827" y="0" type="line"/>
      <point x="1027" y="658" type="line"/>
      <point x="853" y="658" type="line"/>
      <point x="763" y="326" type="line"/>
      <point x="735" y="211" type="line"/>
      <point x="707" y="326" type="line"/>
      <point x="617" y="658" type="line"/>
      <point x="437" y="658" type="line"/>
      <point x="346" y="326" type="line"/>
      <point x="318" y="207" type="line"/>
      <point x="291" y="326" type="line"/>
      <point x="200" y="658" type="line"/>
      <point x="14" y="658" type="line"/>
    </contour>
  </outline>
</glyph>
<glyph name="X" format="2">
  <advance width="708"/>
  <unicode hex="0058"/>
  <outline>
    <contour>
      <point x="16" y="0" type="line"/>
      <point x="213" y="0" type="line"/>
      <point x="309" y="147" type="line"/>
      <point x="346" y="207" type="line"/>
      <point x="383" y="146" type="line"/>
      <point x="478" y="0" type="line"/>
      <point x="693" y="0" type="line"/>
      <point x="459" y="339" type="line"/>
      <point x="681" y="658" type="line"/>
      <point x="484" y="658" type="line"/>
      <point x="396" y="524" type="line"/>
      <point x="362" y="468" type="line"/>
      <point x="328" y="524" type="line"/>
      <point x="240" y="658" type="line"/>
      <point x="25" y="658" type="line"/>
      <point x="249" y="334" type="line"/>
    </contour>
  </outline>
</glyph>
<glyph name="Y" format="2">
  <advance width="674"/>
  <unicode hex="0059"/>
  <outline>
    <contour>
      <point x="251" y="0" type="line"/>
      <point x="427" y="0" type="line"/>
      <point x="427" y="237" type="line"/>
      <point x="663" y="658" type="line"/>
      <point x="478" y="658" type="line"/>
      <point x="385" y="475" type="line"/>
      <point x="347" y="397" type="line"/>
      <point x="310" y="475" type="line"/>
      <point x="215" y="658" type="line"/>
      <point x="11" y="658" type="line"/>
      <point x="251" y="235" type="line"/>
    </contour>
  </outline>
</glyph>
<glyph name="Z" format="2">
  <advance width="631"/>
  <unicode hex="005A"/>
  <outline>
    <contour>
      <point x="46" y="0" type="line"/>
      <point x="585" y="0" type="line"/>
      <point x="585" y="160" type="line"/>
      <point x="303" y="160" type="line"/>
      <point x="350" y="223" type="line"/>
      <point x="585" y="559" type="line"/>
      <point x="585" y="658" type="line"/>
      <point x="54" y="658" type="line"/>
      <point x="54" y="498" type="line"/>
      <point x="330" y="498" type="line"/>
      <point x="283" y="435" type="line"/>
      <point x="46" y="99" type="line"/>
    </contour>
  </outline>
</glyph>
<glyph name="a" format="2">
  <advance width="506"/>
  <unicode hex="0061"/>
  <outline>
    <contour>
      <point x="173" y="-11" type="curve" smooth="yes"/>
      <point x="228" y="-11"/>
      <point x="272" y="14"/>
      <point x="298" y="59" type="curve"/>
      <point x="308" y="0" type="line"/>
      <point x="467" y="0" type="line"/>
      <point x="467" y="322" type="line" smooth="yes"/>
      <point x="467" y="428"/>
      <point x="385" y="490"/>
      <point x="245" y="490" type="curve" smooth="yes"/>
      <point x="176" y="490"/>
      <point x="112" y="475"/>
      <point x="53" y="455" type="curve"/>
      <point x="53" y="317" type="line"/>
      <point x="101" y="344"/>
      <point x="154" y="360"/>
      <point x="208" y="360" type="curve" smooth="yes"/>
      <point x="267" y="360"/>
      <point x="297" y="344"/>
      <point x="297" y="314" type="curve" smooth="yes"/>
      <point x="297" y="302" type="line"/>
      <point x="214" y="288" type="line" smooth="yes"/>
      <point x="93" y="267"/>
      <point x="28" y="221"/>
      <point x="28" y="126" type="curve" smooth="yes"/>
      <point x="28" y="46"/>
      <point x="87" y="-11"/>
    </contour>
    <contour>
      <point x="242" y="113" type="curve" smooth="yes"/>
      <point x="216" y="113"/>
      <point x="198" y="128"/>
      <point x="198" y="153" type="curve" smooth="yes"/>
      <point x="198" y="181"/>
      <point x="217" y="198"/>
      <point x="246" y="203" type="curve" smooth="yes"/>
      <point x="297" y="211" type="line"/>
      <point x="297" y="147" type="line"/>
      <point x="288" y="126"/>
      <point x="266" y="113"/>
    </contour>
  </outline>
</glyph>
<glyph name="b" format="2">
  <advance width="544"/>
  <unicode hex="0062"/>
  <outline>
    <contour>
      <point x="254" y="-11" type="curve" smooth="yes"/>
      <point x="415" y="-11"/>
      <point x="517" y="90"/>
      <point x="517" y="251" type="curve" smooth="yes"/>
      <point x="517" y="393"/>
      <point x="452" y="485"/>
      <point x="340" y="485" type="curve" smooth="yes"/>
      <point x="285" y="485"/>
      <point x="243" y="461"/>
      <point x="214" y="427" type="curve"/>
      <point x="214" y="716" type="line"/>
      <point x="44" y="716" type="line"/>
      <point x="44" y="26" type="line"/>
      <point x="114" y="1"/>
      <point x="183" y="-11"/>
    </contour>
    <contour>
      <point x="262" y="128" type="curve" smooth="yes"/>
      <point x="246" y="128"/>
      <point x="229" y="130"/>
      <point x="214" y="135" type="curve"/>
      <point x="214" y="319" type="line"/>
      <point x="230" y="330"/>
      <point x="251" y="336"/>
      <point x="270" y="336" type="curve" smooth="yes"/>
      <point x="320" y="336"/>
      <point x="345" y="298"/>
      <point x="345" y="233" type="curve" smooth="yes"/>
      <point x="345" y="167"/>
      <point x="314" y="128"/>
    </contour>
  </outline>
</glyph>
<glyph name="c" format="2">
  <advance width="454"/>
  <unicode hex="0063"/>
  <outline>
    <contour>
      <point x="280" y="-11" type="curve" smooth="yes"/>
      <point x="325" y="-11"/>
      <point x="375" y="3"/>
      <point x="418" y="25" type="curve"/>
      <point x="418" y="179" type="line"/>
      <point x="383" y="154"/>
      <point x="342" y="138"/>
      <point x="303" y="138" type="curve" smooth="yes"/>
      <point x="240" y="138"/>
      <point x="201" y="174"/>
      <point x="201" y="237" type="curve" smooth="yes"/>
      <point x="201" y="299"/>
      <point x="239" y="334"/>
      <point x="299" y="334" type="curve" smooth="yes"/>
      <point x="338" y="334"/>
      <point x="377" y="321"/>
      <point x="414" y="300" type="curve"/>
      <point x="414" y="454" type="line"/>
      <point x="372" y="473"/>
      <point x="324" y="483"/>
      <point x="279" y="483" type="curve" smooth="yes"/>
      <point x="124" y="483"/>
      <point x="27" y="387"/>
      <point x="27" y="233" type="curve" smooth="yes"/>
      <point x="27" y="82"/>
      <point x="125" y="-11"/>
    </contour>
  </outline>
</glyph>
<glyph name="d" format="2">
  <advance width="547"/>
  <unicode hex="0064"/>
  <outline>
    <contour>
      <point x="211" y="-10" type="curve" smooth="yes"/>
      <point x="265" y="-10"/>
      <point x="309" y="18"/>
      <point x="334" y="64" type="curve"/>
      <point x="343" y="0" type="line"/>
      <point x="503" y="0" type="line"/>
      <point x="503" y="716" type="line"/>
      <point x="333" y="716" type="line"/>
      <point x="333" y="459" type="line"/>
      <point x="308" y="474"/>
      <point x="273" y="483"/>
      <point x="242" y="483" type="curve" smooth="yes"/>
      <point x="115" y="483"/>
      <point x="27" y="382"/>
      <point x="27" y="226" type="curve" smooth="yes"/>
      <point x="27" y="84"/>
      <point x="101" y="-10"/>
    </contour>
    <contour>
      <point x="274" y="137" type="curve" smooth="yes"/>
      <point x="229" y="137"/>
      <point x="201" y="177"/>
      <point x="201" y="237" type="curve" smooth="yes"/>
      <point x="201" y="301"/>
      <point x="232" y="342"/>
      <point x="281" y="342" type="curve" smooth="yes"/>
      <point x="299" y="342"/>
      <point x="319" y="336"/>
      <point x="333" y="327" type="curve"/>
      <point x="333" y="166" type="line"/>
      <point x="317" y="148"/>
      <point x="296" y="137"/>
    </contour>
  </outline>
</glyph>
<glyph name="e" format="2">
  <advance width="512"/>
  <unicode hex="0065"/>
  <outline>
    <contour>
      <point x="281" y="-13" type="curve" smooth="yes"/>
      <point x="340" y="-13"/>
      <point x="406" y="-1"/>
      <point x="472" y="23" type="curve"/>
      <point x="472" y="164" type="line"/>
      <point x="421" y="136"/>
      <point x="368" y="122"/>
      <point x="319" y="122" type="curve" smooth="yes"/>
      <point x="247" y="122"/>
      <point x="206" y="146"/>
      <point x="201" y="193" type="curve"/>
      <point x="485" y="193" type="line"/>
      <point x="485" y="217" type="line" smooth="yes"/>
      <point x="485" y="386"/>
      <point x="409" y="487"/>
      <point x="267" y="487" type="curve" smooth="yes"/>
      <point x="117" y="487"/>
      <point x="27" y="389"/>
      <point x="27" y="238" type="curve" smooth="yes"/>
      <point x="27" y="83"/>
      <point x="121" y="-13"/>
    </contour>
    <contour>
      <point x="262" y="372" type="curve" smooth="yes"/>
      <point x="300" y="372"/>
      <point x="319" y="345"/>
      <point x="319" y="289" type="curve"/>
      <point x="200" y="289" type="line"/>
      <point x="203" y="344"/>
      <point x="223" y="372"/>
    </contour>
  </outline>
</glyph>
<glyph name="f" format="2">
  <advance width="354"/>
  <unicode hex="0066"/>
  <outline>
    <contour>
      <point x="81" y="0" type="line"/>
      <point x="251" y="0" type="line"/>
      <point x="251" y="331" type="line"/>
      <point x="333" y="331" type="line"/>
      <point x="333" y="474" type="line"/>
      <point x="251" y="474" type="line"/>
      <point x="251" y="506" type="line" smooth="yes"/>
      <point x="251" y="553"/>
      <point x="281" y="577"/>
      <point x="329" y="577" type="curve" smooth="yes"/>
      <point x="357" y="577"/>
      <point x="392" y="570"/>
      <point x="421" y="559" type="curve"/>
      <point x="421" y="708" type="line"/>
      <point x="380" y="721"/>
      <point x="337" y="727"/>
      <point x="293" y="727" type="curve" smooth="yes"/>
      <point x="163" y="727"/>
      <point x="81" y="645"/>
      <point x="81" y="526" type="curve" smooth="yes"/>
      <point x="81" y="474" type="line"/>
      <point x="22" y="474" type="line"/>
      <point x="22" y="331" type="line"/>
      <point x="81" y="331" type="line"/>
    </contour>
  </outline>
</glyph>
<glyph name="g" format="2">
  <advance width="544"/>
  <unicode hex="0067"/>
  <outline>
    <contour>
      <point x="256" y="-220" type="curve" smooth="yes"/>
      <point x="389" y="-220"/>
      <point x="500" y="-141"/>
      <point x="500" y="25" type="curve" smooth="yes"/>
      <point x="500" y="474" type="line"/>
      <point x="429" y="474" type="line"/>
      <point x="396" y="422" type="line"/>
      <point x="368" y="461"/>
      <point x="312" y="485"/>
      <point x="261" y="485" type="curve" smooth="yes"/>
      <point x="128" y="485"/>
      <point x="27" y="391"/>
      <point x="27" y="228" type="curve" smooth="yes"/>
      <point x="27" y="80"/>
      <point x="96" y="-11"/>
      <point x="219" y="-11" type="curve" smooth="yes"/>
      <point x="262" y="-11"/>
      <point x="304" y="7"/>
      <point x="330" y="41" type="curve"/>
      <point x="330" y="10" type="line" smooth="yes"/>
      <point x="330" y="-66"/>
      <point x="264" y="-84"/>
      <point x="212" y="-84" type="curve" smooth="yes"/>
      <point x="162" y="-84"/>
      <point x="107" y="-67"/>
      <point x="59" y="-36" type="curve"/>
      <point x="59" y="-184" type="line"/>
      <point x="119" y="-208"/>
      <point x="184" y="-220"/>
    </contour>
    <contour>
      <point x="271" y="133" type="curve" smooth="yes"/>
      <point x="225" y="133"/>
      <point x="198" y="173"/>
      <point x="198" y="234" type="curve" smooth="yes"/>
      <point x="198" y="292"/>
      <point x="228" y="338"/>
      <point x="279" y="338" type="curve" smooth="yes"/>
      <point x="296" y="338"/>
      <point x="314" y="334"/>
      <point x="329" y="328" type="curve"/>
      <point x="329" y="153" type="line"/>
      <point x="313" y="141"/>
      <point x="294" y="133"/>
    </contour>
  </outline>
</glyph>
<glyph name="h" format="2">
  <advance width="540"/>
  <unicode hex="0068"/>
  <outline>
    <contour>
      <point x="44" y="0" type="line"/>
      <point x="214" y="0" type="line"/>
      <point x="214" y="304" type="line"/>
      <point x="230" y="327"/>
      <point x="251" y="338"/>
      <point x="276" y="338" type="curve" smooth="yes"/>
      <point x="309" y="338"/>
      <point x="329" y="318"/>
      <point x="329" y="279" type="curve" smooth="yes"/>
      <point x="329" y="0" type="line"/>
      <point x="499" y="0" type="line"/>
      <point x="499" y="317" type="line" smooth="yes"/>
      <point x="499" y="423"/>
      <point x="438" y="485"/>
      <point x="347" y="485" type="curve" smooth="yes"/>
      <point x="289" y="485"/>
      <point x="244" y="458"/>
      <point x="214" y="414" type="curve"/>
      <point x="214" y="716" type="line"/>
      <point x="44" y="716" type="line"/>
    </contour>
  </outline>
</glyph>
<glyph name="j" format="2">
  <advance width="257"/>
  <unicode hex="006A"/>
  <outline>
    <contour>
      <point x="44" y="563" type="line"/>
      <point x="214" y="563" type="line"/>
      <point x="214" y="716" type="line"/>
      <point x="44" y="716" type="line"/>
    </contour>
    <contour>
      <point x="-40" y="-220" type="line" smooth="yes"/>
      <point x="114" y="-220"/>
      <point x="214" y="-130"/>
      <point x="214" y="12" type="curve" smooth="yes"/>
      <point x="214" y="474" type="line"/>
      <point x="44" y="474" type="line"/>
      <point x="44" y="13" type="line" smooth="yes"/>
      <point x="44" y="-44"/>
      <point x="11" y="-76"/>
      <point x="-40" y="-76" type="curve" smooth="yes"/>
      <point x="-48" y="-76" type="line"/>
      <point x="-48" y="-220" type="line"/>
    </contour>
  </outline>
</glyph>
<glyph name="k" format="2">
  <advance width="549"/>
  <unicode hex="006B"/>
  <outline>
    <contour>
      <point x="44" y="0" type="line"/>
      <point x="214" y="0" type="line"/>
      <point x="214" y="204" type="line"/>
      <point x="344" y="0" type="line"/>
      <point x="540" y="0" type="line"/>
      <point x="375" y="252" type="line"/>
      <point x="533" y="474" type="line"/>
      <point x="346" y="474" type="line"/>
      <point x="214" y="280" type="line"/>
      <point x="214" y="716" type="line"/>
      <point x="44" y="716" type="line"/>
    </contour>
  </outline>
</glyph>
<glyph name="l" format="2">
  <advance width="258"/>
  <unicode hex="006C"/>
  <outline>
    <contour>
      <point x="44" y="0" type="line"/>
      <point x="214" y="0" type="line"/>
      <point x="214" y="716" type="line"/>
      <point x="44" y="716" type="line"/>
    </contour>
  </outline>
</glyph>
<glyph name="m" format="2">
  <advance width="821"/>
  <unicode hex="006D"/>
  <outline>
    <contour>
      <point x="44" y="0" type="line"/>
      <point x="214" y="0" type="line"/>
      <point x="214" y="304" type="line"/>
      <point x="229" y="327"/>
      <point x="249" y="338"/>
      <point x="275" y="338" type="curve" smooth="yes"/>
      <point x="307" y="338"/>
      <point x="327" y="318"/>
      <point x="327" y="279" type="curve"/>
      <point x="327" y="0" type="line"/>
      <point x="497" y="0" type="line"/>
      <point x="497" y="308" type="line"/>
      <point x="513" y="327"/>
      <point x="534" y="338"/>
      <point x="558" y="338" type="curve" smooth="yes"/>
      <point x="588" y="338"/>
      <point x="610" y="318"/>
      <point x="610" y="279" type="curve" smooth="yes"/>
      <point x="610" y="0" type="line"/>
      <point x="780" y="0" type="line"/>
      <point x="780" y="317" type="line" smooth="yes"/>
      <point x="780" y="423"/>
      <point x="717" y="485"/>
      <point x="626" y="485" type="curve" smooth="yes"/>
      <point x="572" y="485"/>
      <point x="524" y="467"/>
      <point x="480" y="406" type="curve"/>
      <point x="455" y="454"/>
      <point x="409" y="485"/>
      <point x="348" y="485" type="curve" smooth="yes"/>
      <point x="287" y="485"/>
      <point x="245" y="458"/>
      <point x="214" y="413" type="curve"/>
      <point x="214" y="474" type="line"/>
      <point x="44" y="474" type="line"/>
    </contour>
  </outline>
</glyph>
<glyph name="n" format="2">
  <advance width="540"/>
  <unicode hex="006E"/>
  <outline>
    <contour>
      <point x="44" y="0" type="line"/>
      <point x="214" y="0" type="line"/>
      <point x="214" y="304" type="line"/>
      <point x="230" y="327"/>
      <point x="251" y="338"/>
      <point x="276" y="338" type="curve" smooth="yes"/>
      <point x="309" y="338"/>
      <point x="329" y="318"/>
      <point x="329" y="279" type="curve" smooth="yes"/>
      <point x="329" y="0" type="line"/>
      <point x="499" y="0" type="line"/>
      <point x="499" y="317" type="line" smooth="yes"/>
      <point x="499" y="423"/>
      <point x="438" y="485"/>
      <point x="349" y="485" type="curve" smooth="yes"/>
      <point x="289" y="485"/>
      <point x="244" y="458"/>
      <point x="214" y="413" type="curve"/>
      <point x="214" y="474" type="line"/>
      <point x="44" y="474" type="line"/>
    </contour>
  </outline>
</glyph>
<glyph name="o" format="2">
  <advance width="558"/>
  <unicode hex="006F"/>
  <outline>
    <contour>
      <point x="279" y="-14" type="curve" smooth="yes"/>
      <point x="432" y="-14"/>
      <point x="531" y="86"/>
      <point x="531" y="240" type="curve" smooth="yes"/>
      <point x="531" y="391"/>
      <point x="432" y="488"/>
      <point x="279" y="488" type="curve" smooth="yes"/>
      <point x="126" y="488"/>
      <point x="27" y="390"/>
      <point x="27" y="238" type="curve" smooth="yes"/>
      <point x="27" y="85"/>
      <point x="126" y="-14"/>
    </contour>
    <contour>
      <point x="279" y="135" type="curve" smooth="yes"/>
      <point x="232" y="135"/>
      <point x="201" y="174"/>
      <point x="201" y="238" type="curve" smooth="yes"/>
      <point x="201" y="302"/>
      <point x="232" y="340"/>
      <point x="279" y="340" type="curve" smooth="yes"/>
      <point x="326" y="340"/>
      <point x="357" y="301"/>
      <point x="357" y="237" type="curve" smooth="yes"/>
      <point x="357" y="173"/>
      <point x="326" y="135"/>
    </contour>
  </outline>
</glyph>
<glyph name="p" format="2">
  <advance width="544"/>
  <unicode hex="0070"/>
  <outline>
    <contour>
      <point x="44" y="-196" type="line"/>
      <point x="214" y="-196" type="line"/>
      <point x="214" y="-1" type="line"/>
      <point x="237" y="-7"/>
      <point x="265" y="-11"/>
      <point x="286" y="-11" type="curve" smooth="yes"/>
      <point x="426" y="-11"/>
      <point x="517" y="92"/>
      <point x="517" y="251" type="curve" smooth="yes"/>
      <point x="517" y="391"/>
      <point x="452" y="485"/>
      <point x="346" y="485" type="curve" smooth="yes"/>
      <point x="284" y="485"/>
      <point x="242" y="459"/>
      <point x="214" y="418" type="curve"/>
      <point x="214" y="474" type="line"/>
      <point x="44" y="474" type="line"/>
    </contour>
    <contour>
      <point x="263" y="130" type="curve" smooth="yes"/>
      <point x="246" y="130"/>
      <point x="230" y="133"/>
      <point x="214" y="138" type="curve"/>
      <point x="214" y="317" type="line"/>
      <point x="229" y="330"/>
      <point x="250" y="338"/>
      <point x="270" y="338" type="curve" smooth="yes"/>
      <point x="319" y="338"/>
      <point x="345" y="300"/>
      <point x="345" y="236" type="curve" smooth="yes"/>
      <point x="345" y="167"/>
      <point x="314" y="130"/>
    </contour>
  </outline>
</glyph>
<glyph name="q" format="2">
  <advance width="547"/>
  <unicode hex="0071"/>
  <outline>
    <contour>
      <point x="332" y="-196" type="line"/>
      <point x="502" y="-196" type="line"/>
      <point x="502" y="474" type="line"/>
      <point x="431" y="474" type="line"/>
      <point x="398" y="424" type="line"/>
      <point x="370" y="459"/>
      <point x="312" y="485"/>
      <point x="260" y="485" type="curve" smooth="yes"/>
      <point x="120" y="485"/>
      <point x="27" y="385"/>
      <point x="27" y="228" type="curve" smooth="yes"/>
      <point x="27" y="83"/>
      <point x="103" y="-11"/>
      <point x="217" y="-11" type="curve" smooth="yes"/>
      <point x="262" y="-11"/>
      <point x="303" y="6"/>
      <point x="332" y="39" type="curve"/>
    </contour>
    <contour>
      <point x="272" y="135" type="curve" smooth="yes"/>
      <point x="228" y="135"/>
      <point x="200" y="174"/>
      <point x="200" y="235" type="curve" smooth="yes"/>
      <point x="200" y="298"/>
      <point x="230" y="338"/>
      <point x="279" y="338" type="curve" smooth="yes"/>
      <point x="296" y="338"/>
      <point x="316" y="334"/>
      <point x="331" y="327" type="curve"/>
      <point x="331" y="154" type="line"/>
      <point x="316" y="143"/>
      <point x="296" y="135"/>
    </contour>
  </outline>
</glyph>
<glyph name="r" format="2">
  <advance width="379"/>
  <unicode hex="0072"/>
  <outline>
    <contour>
      <point x="44" y="0" type="line"/>
      <point x="214" y="0" type="line"/>
      <point x="214" y="301" type="line"/>
      <point x="234" y="316"/>
      <point x="264" y="326"/>
      <point x="292" y="326" type="curve" smooth="yes"/>
      <point x="320" y="326"/>
      <point x="342" y="321"/>
      <point x="367" y="310" type="curve"/>
      <point x="367" y="478" type="line"/>
      <point x="352" y="483"/>
      <point x="337" y="485"/>
      <point x="320" y="485" type="curve" smooth="yes"/>
      <point x="279" y="485"/>
      <point x="241" y="461"/>
      <point x="214" y="402" type="curve"/>
      <point x="214" y="474" type="line"/>
      <point x="44" y="474" type="line"/>
    </contour>
  </outline>
</glyph>
<glyph name="s" format="2">
  <advance width="444"/>
  <unicode hex="0073"/>
  <outline>
    <contour>
      <point x="212" y="-13" type="curve" smooth="yes"/>
      <point x="350" y="-13"/>
      <point x="417" y="51"/>
      <point x="417" y="149" type="curve" smooth="yes"/>
      <point x="417" y="224"/>
      <point x="375" y="275"/>
      <point x="274" y="303" type="curve" smooth="yes"/>
      <point x="243" y="311" type="line" smooth="yes"/>
      <point x="215" y="320"/>
      <point x="206" y="329"/>
      <point x="206" y="343" type="curve" smooth="yes"/>
      <point x="206" y="359"/>
      <point x="221" y="367"/>
      <point x="247" y="367" type="curve" smooth="yes"/>
      <point x="295" y="367"/>
      <point x="343" y="355"/>
      <point x="390" y="332" type="curve"/>
      <point x="390" y="464" type="line"/>
      <point x="336" y="478"/>
      <point x="276" y="487"/>
      <point x="220" y="487" type="curve" smooth="yes"/>
      <point x="90" y="487"/>
      <point x="27" y="428"/>
      <point x="27" y="331" type="curve" smooth="yes"/>
      <point x="27" y="253"/>
      <point x="69" y="205"/>
      <point x="168" y="176" type="curve" smooth="yes"/>
      <point x="199" y="168" type="line" smooth="yes"/>
      <point x="228" y="158"/>
      <point x="238" y="150"/>
      <point x="238" y="136" type="curve" smooth="yes"/>
      <point x="238" y="119"/>
      <point x="222" y="110"/>
      <point x="193" y="110" type="curve" smooth="yes"/>
      <point x="141" y="110"/>
      <point x="85" y="125"/>
      <point x="36" y="150" type="curve"/>
      <point x="36" y="13" type="line"/>
      <point x="92" y="-3"/>
      <point x="154" y="-13"/>
    </contour>
  </outline>
</glyph>
<glyph name="t" format="2">
  <advance width="365"/>
  <unicode hex="0074"/>
  <outline>
    <contour>
      <point x="220" y="-11" type="curve" smooth="yes"/>
      <point x="258" y="-11"/>
      <point x="299" y="-5"/>
      <point x="336" y="10" type="curve"/>
      <point x="336" y="154" type="line"/>
      <point x="321" y="145"/>
      <point x="307" y="140"/>
      <point x="291" y="140" type="curve" smooth="yes"/>
      <point x="266" y="140"/>
      <point x="249" y="158"/>
      <point x="249" y="187" type="curve" smooth="yes"/>
      <point x="249" y="331" type="line"/>
      <point x="332" y="331" type="line"/>
      <point x="332" y="474" type="line"/>
      <point x="249" y="474" type="line"/>
      <point x="249" y="605" type="line"/>
      <point x="79" y="605" type="line"/>
      <point x="79" y="474" type="line"/>
      <point x="21" y="474" type="line"/>
      <point x="21" y="331" type="line"/>
      <point x="79" y="331" type="line"/>
      <point x="79" y="136" type="line" smooth="yes"/>
      <point x="79" y="44"/>
      <point x="132" y="-11"/>
    </contour>
  </outline>
</glyph>
<glyph name="u" format="2">
  <advance width="540"/>
  <unicode hex="0075"/>
  <outline>
    <contour>
      <point x="197" y="-12" type="curve" smooth="yes"/>
      <point x="250" y="-12"/>
      <point x="297" y="15"/>
      <point x="326" y="61" type="curve"/>
      <point x="335" y="0" type="line"/>
      <point x="496" y="0" type="line"/>
      <point x="496" y="474" type="line"/>
      <point x="326" y="474" type="line"/>
      <point x="326" y="169" type="line"/>
      <point x="312" y="148"/>
      <point x="291" y="136"/>
      <point x="266" y="136" type="curve" smooth="yes"/>
      <point x="234" y="136"/>
      <point x="211" y="159"/>
      <point x="211" y="195" type="curve" smooth="yes"/>
      <point x="211" y="474" type="line"/>
      <point x="41" y="474" type="line"/>
      <point x="41" y="158" type="line" smooth="yes"/>
      <point x="41" y="53"/>
      <point x="103" y="-12"/>
    </contour>
  </outline>
</glyph>
<glyph name="v" format="2">
  <advance width="539"/>
  <unicode hex="0076"/>
  <outline>
    <contour>
      <point x="166" y="0" type="line"/>
      <point x="373" y="0" type="line"/>
      <point x="528" y="474" type="line"/>
      <point x="366" y="474" type="line"/>
      <point x="309" y="279" type="line"/>
      <point x="279" y="166" type="line"/>
      <point x="250" y="279" type="line"/>
      <point x="193" y="474" type="line"/>
      <point x="11" y="474" type="line"/>
    </contour>
  </outline>
</glyph>
<glyph name="w" format="2">
  <advance width="842"/>
  <unicode hex="0077"/>
  <outline>
    <contour>
      <point x="152" y="0" type="line"/>
      <point x="346" y="0" type="line"/>
      <point x="387" y="155" type="line"/>
      <point x="417" y="275" type="line"/>
      <point x="447" y="155" type="line"/>
      <point x="488" y="0" type="line"/>
      <point x="681" y="0" type="line"/>
      <point x="831" y="474" type="line"/>
      <point x="677" y="474" type="line"/>
      <point x="620" y="279" type="line"/>
      <point x="590" y="163" type="line"/>
      <point x="560" y="279" type="line"/>
      <point x="506" y="474" type="line"/>
      <point x="343" y="474" type="line"/>
      <point x="291" y="279" type="line"/>
      <point x="264" y="161" type="line"/>
      <point x="237" y="279" type="line"/>
      <point x="185" y="474" type="line"/>
      <point x="11" y="474" type="line"/>
    </contour>
  </outline>
</glyph>
<glyph name="x" format="2">
  <advance width="543"/>
  <unicode hex="0078"/>
  <outline>
    <contour>
      <point x="11" y="0" type="line"/>
      <point x="193" y="0" type="line"/>
      <point x="245" y="82" type="line"/>
      <point x="264" y="117" type="line"/>
      <point x="283" y="82" type="line"/>
      <point x="335" y="0" type="line"/>
      <point x="532" y="0" type="line"/>
      <point x="366" y="244" type="line"/>
      <point x="521" y="474" type="line"/>
      <point x="343" y="474" type="line"/>
      <point x="293" y="394" type="line"/>
      <point x="276" y="361" type="line"/>
      <point x="258" y="394" type="line"/>
      <point x="209" y="474" type="line"/>
      <point x="17" y="474" type="line"/>
      <point x="175" y="240" type="line"/>
    </contour>
  </outline>
</glyph>
<glyph name="y" format="2">
  <advance width="538"/>
  <unicode hex="0079"/>
  <outline>
    <contour>
      <point x="32" y="-212" type="line" smooth="yes"/>
      <point x="225" y="-212"/>
      <point x="325" y="-151"/>
      <point x="390" y="53" type="curve" smooth="yes"/>
      <point x="527" y="474" type="line"/>
      <point x="364" y="474" type="line"/>
      <point x="309" y="279" type="line"/>
      <point x="278" y="151" type="line"/>
      <point x="248" y="279" type="line"/>
      <point x="193" y="474" type="line"/>
      <point x="11" y="474" type="line"/>
      <point x="167" y="9" type="line"/>
      <point x="192" y="-5" type="line"/>
      <point x="163" y="-50"/>
      <point x="122" y="-63"/>
      <point x="32" y="-63" type="curve" smooth="yes"/>
      <point x="24" y="-63" type="line"/>
      <point x="24" y="-212" type="line"/>
    </contour>
  </outline>
</glyph>
<glyph name="z" format="2">
  <advance width="486"/>
  <unicode hex="007A"/>
  <outline>
    <contour>
      <point x="34" y="0" type="line"/>
      <point x="452" y="0" type="line"/>
      <point x="452" y="144" type="line"/>
      <point x="264" y="144" type="line"/>
      <point x="310" y="201" type="line"/>
      <point x="445" y="376" type="line"/>
      <point x="445" y="474" type="line"/>
      <point x="38" y="474" type="line"/>
      <point x="38" y="330" type="line"/>
      <point x="215" y="330" type="line"/>
      <point x="169" y="273" type="line"/>
      <point x="34" y="98" type="line"/>
    </contour>
  </outline>
</glyph>
<glyph name="braceleft" format="2">
  <advance width="485"/>
  <unicode hex="007B"/>
  <outline>
    <contour>
      <point x="408" y="-220" type="curve" smooth="yes"/>
      <point x="445" y="-220" type="line"/>
      <point x="445" y="-88" type="line"/>
      <point x="429" y="-88" type="line" smooth="yes"/>
      <point x="367" y="-88"/>
      <point x="335" y="-57"/>
      <point x="340" y="7" type="curve" smooth="yes"/>
      <point x="346" y="88" type="line" smooth="yes"/>
      <point x="353" y="168"/>
      <point x="304" y="224"/>
      <point x="225" y="248" type="curve"/>
      <point x="225" y="249" type="line"/>
      <point x="305" y="270"/>
      <point x="354" y="325"/>
      <point x="347" y="409" type="curve" smooth="yes"/>
      <point x="340" y="490" type="line" smooth="yes"/>
      <point x="335" y="553"/>
      <point x="368" y="584"/>
      <point x="429" y="584" type="curve" smooth="yes"/>
      <point x="445" y="584" type="line"/>
      <point x="445" y="716" type="line"/>
      <point x="408" y="716" type="line" smooth="yes"/>
      <point x="249" y="716"/>
      <point x="167" y="647"/>
      <point x="175" y="524" type="curve" smooth="yes"/>
      <point x="182" y="416" type="line" smooth="yes"/>
      <point x="186" y="359"/>
      <point x="141" y="327"/>
      <point x="58" y="314" type="curve"/>
      <point x="58" y="182" type="line"/>
      <point x="141" y="170"/>
      <point x="186" y="137"/>
      <point x="182" y="80" type="curve" smooth="yes"/>
      <point x="175" y="-28" type="line" smooth="yes"/>
      <point x="167" y="-151"/>
      <point x="249" y="-220"/>
    </contour>
  </outline>
</glyph>
<glyph name="bar" format="2">
  <advance width="276"/>
  <unicode hex="007C"/>
  <outline>
    <contour>
      <point x="70" y="-215" type="line"/>
      <point x="206" y="-215" type="line"/>
      <point x="206" y="716" type="line"/>
      <point x="70" y="716" type="line"/>
    </contour>
  </outline>
</glyph>
<glyph name="braceright" format="2">
  <advance width="485"/>
  <unicode hex="007D"/>
  <outline>
    <contour>
      <point x="40" y="-220" type="line"/>
      <point x="77" y="-220" type="line" smooth="yes"/>
      <point x="236" y="-220"/>
      <point x="319" y="-151"/>
      <point x="310" y="-28" type="curve" smooth="yes"/>
      <point x="303" y="80" type="line" smooth="yes"/>
      <point x="300" y="137"/>
      <point x="344" y="170"/>
      <point x="427" y="182" type="curve"/>
      <point x="427" y="314" type="line"/>
      <point x="344" y="327"/>
      <point x="300" y="359"/>
      <point x="303" y="416" type="curve" smooth="yes"/>
      <point x="310" y="524" type="line" smooth="yes"/>
      <point x="319" y="647"/>
      <point x="236" y="716"/>
      <point x="77" y="716" type="curve" smooth="yes"/>
      <point x="40" y="716" type="line"/>
      <point x="40" y="584" type="line"/>
      <point x="56" y="584" type="line" smooth="yes"/>
      <point x="118" y="584"/>
      <point x="150" y="553"/>
      <point x="145" y="490" type="curve" smooth="yes"/>
      <point x="139" y="409" type="line" smooth="yes"/>
      <point x="132" y="327"/>
      <point x="181" y="271"/>
      <point x="260" y="249" type="curve"/>
      <point x="260" y="247" type="line"/>
      <point x="181" y="225"/>
      <point x="132" y="170"/>
      <point x="139" y="88" type="curve" smooth="yes"/>
      <point x="146" y="7" type="line" smooth="yes"/>
      <point x="151" y="-57"/>
      <point x="118" y="-88"/>
      <point x="56" y="-88" type="curve" smooth="yes"/>
      <point x="40" y="-88" type="line"/>
    </contour>
  </outline>
</glyph>
